<?xml version="1.0" encoding="UTF-8" standalone="no"?>
<!-- Created with Inkscape (http://www.inkscape.org/) -->

<svg
   xmlns:dc="http://purl.org/dc/elements/1.1/"
   xmlns:cc="http://creativecommons.org/ns#"
   xmlns:rdf="http://www.w3.org/1999/02/22-rdf-syntax-ns#"
   xmlns:svg="http://www.w3.org/2000/svg"
   xmlns="http://www.w3.org/2000/svg"
   xmlns:sodipodi="http://sodipodi.sourceforge.net/DTD/sodipodi-0.dtd"
   xmlns:inkscape="http://www.inkscape.org/namespaces/inkscape"
   width="400"
   height="400"
   viewBox="0 0 105.83333 105.83334"
   version="1.1"
   id="svg8"
   inkscape:version="0.92.4 (5da689c313, 2019-01-14)"
   sodipodi:docname="logo.svg">
  <defs
     id="defs2" />
  <sodipodi:namedview
     id="base"
     pagecolor="#ffffff"
     bordercolor="#666666"
     borderopacity="1.0"
     inkscape:pageopacity="0.0"
     inkscape:pageshadow="2"
     inkscape:zoom="2.8284271"
     inkscape:cx="312.23446"
     inkscape:cy="162.71103"
     inkscape:document-units="px"
     inkscape:current-layer="g4684"
     showgrid="false"
     inkscape:snap-nodes="true"
     units="px"
     showguides="false"
     inkscape:guide-bbox="true"
     inkscape:window-width="3840"
     inkscape:window-height="2066"
     inkscape:window-x="-11"
     inkscape:window-y="-11"
     inkscape:window-maximized="1"
     inkscape:object-paths="true">
    <inkscape:grid
       type="xygrid"
       id="grid4518" />
    <sodipodi:guide
       position="52.916665,83.343755"
       orientation="1,0"
       id="guide4532"
       inkscape:locked="false" />
    <sodipodi:guide
       position="58.208331,52.91667"
       orientation="0,1"
       id="guide4534"
       inkscape:locked="false" />
  </sodipodi:namedview>
  <metadata
     id="metadata5">
    <rdf:RDF>
      <cc:Work
         rdf:about="">
        <dc:format>image/svg+xml</dc:format>
        <dc:type
           rdf:resource="http://purl.org/dc/dcmitype/StillImage" />
        <dc:title />
      </cc:Work>
    </rdf:RDF>
  </metadata>
  <g
     inkscape:label="Layer 1"
     inkscape:groupmode="layer"
     id="layer1"
     transform="translate(0,-191.16663)">
    <g
       id="g4684">
      <ellipse
         style="opacity:1;fill:#ffffff;fill-opacity:1;stroke:#ffffff;stroke-width:1.53666878;stroke-linecap:round;stroke-linejoin:round;stroke-miterlimit:4;stroke-dasharray:none;stroke-dashoffset:0;stroke-opacity:1"
         id="path841"
         cx="52.916664"
         cy="244.0833"
         rx="51.222286"
         ry="51.222294" />
      <path
         sodipodi:nodetypes="scccccccs"
         inkscape:connector-curvature="0"
         id="circle4540"
         d="m 55.560276,212.64897 c -11.972258,-2.05798 -41.570957,4.89435 -28.420592,33.28674 h 16.792557 c 10.92978,-9.01844 4.893485,-14.05063 10.929782,-14.05062 16.638361,1.98839 14.371705,23.34776 2.362255,32.77488 -2.482032,1.32451 -3.915946,3.27209 -3.920521,5.32495 -2.5e-5,3.85646 4.947425,6.98272 11.050341,6.98264 4.952975,-0.003 9.297479,-2.08873 10.630732,-5.10302 11.93487,-17.67707 11.075889,-53.97269 -19.424554,-59.21557 z"
         style="fill:#db5772;fill-opacity:1;stroke:none;stroke-width:1.60328007;stroke-linecap:round;stroke-linejoin:round;stroke-miterlimit:4;stroke-dasharray:none;stroke-dashoffset:0;stroke-opacity:1" />
      <path
         sodipodi:nodetypes="ccccccc"
         inkscape:connector-curvature="0"
         id="path4550"
         d="m 26.804623,245.93571 c -3.068901,10.60221 0.491718,21.42135 8.81778,27.25978 1.563338,0.96175 3.908182,2.30864 5.313856,2.39464 -2.764087,-8.36959 -0.300636,-12.13954 1.004815,-20.72041 0.484385,-3.00688 1.106157,-5.99278 1.898399,-8.93401 -6.241232,-4.42178 -9.032876,-13.723 -9.226905,-16.30835 -4.140571,3.26665 -0.123436,8.61134 -7.807945,16.30835 z"
         style="fill:#ffffff;fill-opacity:1;stroke:none;stroke-width:1.60328007;stroke-linecap:butt;stroke-linejoin:miter;stroke-miterlimit:4;stroke-dasharray:none;stroke-opacity:1" />
      <path
         sodipodi:nodetypes="ccccc"
         inkscape:connector-curvature="0"
         id="path4564"
         d="m 26.102797,257.96462 c 1.079313,6.15545 4.394727,11.63719 9.519475,15.23077 1.563338,0.96176 3.908323,2.30874 5.313995,2.39474 -1.822177,-5.5175 -1.369589,-9.04072 -0.477538,-13.25641 0,0 -8.474914,0.94508 -14.355932,-4.3691 z"
         style="fill:#404040;stroke:none;stroke-width:1.60328007;stroke-linecap:butt;stroke-linejoin:miter;stroke-miterlimit:4;stroke-dasharray:none;stroke-opacity:1" />
      <g
         transform="matrix(0.25906489,-0.71177495,0.71177495,0.25906489,-128.63842,192.75011)"
         id="g4631">
        <ellipse
           style="opacity:1;fill:#ffffff;fill-opacity:1;stroke:#ffffff;stroke-width:4.38193369;stroke-linecap:round;stroke-linejoin:round;stroke-miterlimit:4;stroke-dasharray:none;stroke-dashoffset:0;stroke-opacity:1"
           id="path4601"
           cx="26.62528"
           cy="219.08144"
           rx="5.0745325"
           ry="4.5453658" />
        <ellipse
           cy="218.93222"
           cx="26.625286"
           id="circle4605"
           style="opacity:1;fill:#404040;fill-opacity:1;stroke:none;stroke-width:4.33812571;stroke-linecap:round;stroke-linejoin:round;stroke-miterlimit:4;stroke-dasharray:none;stroke-dashoffset:0;stroke-opacity:1"
           rx="4.2017746"
           ry="3.6405084" />
        <circle
           style="opacity:1;fill:#ffffff;fill-opacity:1;stroke:none;stroke-width:3.0948472;stroke-linecap:round;stroke-linejoin:round;stroke-miterlimit:4;stroke-dasharray:none;stroke-dashoffset:0;stroke-opacity:1"
           id="circle4607"
           cx="26.119656"
           cy="216.31876"
           r="2.790194" />
      </g>
      <path
         style="fill:#db5772;fill-opacity:1;stroke:none;stroke-width:0.20041001px;stroke-linecap:butt;stroke-linejoin:miter;stroke-opacity:1"
         d="m 36.261148,235.49715 c -0.5492,-2.59734 1.007555,-5.61828 3.877208,-7.10625 2.869652,-1.48797 5.562166,4.78276 5.562166,5.03075 0,0.248 -3.932487,6.27073 -4.145053,6.27073 -0.212567,0 -5.294321,-4.19523 -5.294321,-4.19523 z"
         id="path4847"
         inkscape:connector-curvature="0"
         sodipodi:nodetypes="ccssc" />
      <path
         style="opacity:0.42600002;fill:#bfbfbf;fill-opacity:1;stroke:none;stroke-width:0.20040999px;stroke-linecap:butt;stroke-linejoin:miter;stroke-opacity:1"
         d="m 40.838983,243.18669 c -1.222144,13.66631 -12.636231,16.36448 -0.936861,32.18268 0.376761,0.12101 0.7285,0.20207 1.034145,0.22077 -2.764086,-8.36959 -0.30066,-12.13965 1.004791,-20.72052 0.484385,-3.00687 1.106172,-5.99267 1.898415,-8.9339 -0.466406,-0.33044 -1.449229,-1.16443 -3.00049,-2.74903 z"
         id="path4784"
         inkscape:connector-curvature="0"
         sodipodi:nodetypes="cccccc" />
      <path
         style="opacity:0.628;fill:#000000;fill-opacity:1;stroke:none;stroke-width:0.20040999px;stroke-linecap:butt;stroke-linejoin:miter;stroke-opacity:1"
         d="m 34.720428,262.01197 c -0.302752,3.47352 0.866097,7.52247 5.181694,13.3574 0.08915,0.0287 0.176571,0.0548 0.262645,0.0787 0.01367,0.004 0.02713,0.007 0.04071,0.0106 0.07575,0.0204 0.150261,0.0391 0.223112,0.0552 0.03172,0.007 0.06243,0.0124 0.09355,0.0184 0.05475,0.0109 0.109691,0.0217 0.162441,0.0297 0.08657,0.0129 0.170981,0.0232 0.251686,0.0282 -0.102461,-0.31026 -0.195361,-0.61236 -0.283782,-0.91046 -0.02609,-0.0879 -0.05065,-0.17452 -0.07555,-0.26147 -0.0652,-0.22764 -0.126303,-0.45219 -0.183578,-0.67325 -0.01964,-0.0758 -0.03999,-0.15196 -0.05871,-0.22703 -0.0671,-0.26887 -0.129337,-0.53429 -0.185145,-0.79421 -0.0037,-0.0173 -0.0085,-0.0351 -0.01213,-0.0524 -0.05986,-0.28186 -0.111667,-0.55748 -0.158917,-0.82983 -0.01,-0.0574 -0.01838,-0.114 -0.02779,-0.17105 -0.03645,-0.22064 -0.06927,-0.43859 -0.09786,-0.65369 -0.0074,-0.0557 -0.01503,-0.11174 -0.02192,-0.16713 -0.03223,-0.25885 -0.06032,-0.51494 -0.08181,-0.76681 -0.02285,-0.26786 -0.03939,-0.53188 -0.05089,-0.79302 -0.0011,-0.0239 -0.0014,-0.0477 -0.0023,-0.0716 -0.0096,-0.2381 -0.01443,-0.47376 -0.01526,-0.70731 -7.6e-5,-0.0222 -3.93e-4,-0.0447 -3.93e-4,-0.0669 -1.06e-4,-0.77525 0.0459,-1.52908 0.126824,-2.27732 1.12e-4,-8.9e-4 2.77e-4,-0.002 3.91e-4,-0.004 0.0803,-0.74162 0.195515,-1.48022 0.332712,-2.22877 0.02692,-0.14683 0.05597,-0.29525 0.08455,-0.4431 0.0736,-0.3808 0.151417,-0.76721 0.234074,-1.15783 0,0 -2.506881,0.27735 -5.738302,-0.32176 z"
         id="path4814"
         inkscape:connector-curvature="0" />
      <circle
         r="2.6812327"
         cy="233.6859"
         cx="40.549156"
         id="circle4835"
         style="opacity:1;fill:#ffffff;fill-opacity:1;stroke:none;stroke-width:1.10011125;stroke-linecap:round;stroke-linejoin:round;stroke-miterlimit:4;stroke-dasharray:none;stroke-dashoffset:0;stroke-opacity:1" />
      <path
         style="fill:#ce506c;fill-opacity:1;stroke:none;stroke-width:0.20040999px;stroke-linecap:butt;stroke-linejoin:miter;stroke-opacity:1"
         d="m 40.834498,243.18948 c 0.567667,0.64478 2.04563,2.21483 3.026888,2.72852 8.525762,-6.5147 6.723658,-12.22839 9.080821,-13.73348 -5.150637,2.37748 -5.198436,9.10439 -12.107709,11.00496 z"
         id="path4842"
         inkscape:connector-curvature="0"
         sodipodi:nodetypes="cccc" />
      <path
         style="fill:#ce506c;fill-opacity:1;stroke:none;stroke-width:1px;stroke-linecap:butt;stroke-linejoin:miter;stroke-opacity:1"
         d="m 254.02734,97.128906 c 71.65934,72.200784 34.13656,216.710564 -41.91211,218.367184 7.64709,5.39389 18.75088,8.79118 31.11329,8.79102 18.7199,-0.0113 35.14062,-7.89452 40.17968,-19.28711 38.42715,-56.91552 41.74174,-164.88193 -29.38086,-207.871094 z"
         transform="matrix(0.26458334,0,0,0.26458334,0,191.16663)"
         id="path872"
         inkscape:connector-curvature="0"
         sodipodi:nodetypes="ccccc" />
    </g>
  </g>
</svg>
